<?xml version="1.0" encoding="UTF-8" standalone="no"?>
<svg
   version="1.1"
   width="465.26401"
   height="117.792"
   id="svg30"
   viewBox="0 0 465.26401 119"
   sodipodi:docname="логотип с подписью горизонтальный.cdr"
   xmlns:inkscape="http://www.inkscape.org/namespaces/inkscape"
   xmlns:sodipodi="http://sodipodi.sourceforge.net/DTD/sodipodi-0.dtd"
   xmlns:xlink="http://www.w3.org/1999/xlink"
   xmlns="http://www.w3.org/2000/svg"
   xmlns:svg="http://www.w3.org/2000/svg">
  <sodipodi:namedview
     id="namedview32"
     pagecolor="#ffffff"
     bordercolor="#666666"
     borderopacity="1.0"
     inkscape:pageshadow="2"
     inkscape:pageopacity="0.0"
     inkscape:pagecheckerboard="0" />
  <defs
     id="defs8">
    <linearGradient
       id="grad1">
      <stop
         offset="0%"
         stop-color="#6b3fc4"
         stop-opacity="1.0000"
         id="stop2" />
      <stop
         offset="100%"
         stop-color="#6bbded"
         stop-opacity="1.0000"
         id="stop4" />
    </linearGradient>
    <linearGradient
       xlink:href="#grad1"
       id="grad2"
       x1="0"
       y1="0"
       x2="0"
       y2="1"
       gradientTransform="rotate(-154,0.5,0.5)"
       gradientUnits="objectBoundingBox" />
  </defs>
  <path
     d="m 102.0033,24.7805 c -0.4362,2.2223 -1.9981,4.3463 -3.4926,5.8221 -0.1114,0.1105 -2.0792,1.4694 -0.5187,1.4694 h 11.0543 c 1.6565,0 -0.7257,-1.3762 -1.9925,-3.1005 -0.7844,-1.0675 -1.7198,-2.6118 -2.0441,-4.2225 0.5114,0.2616 1.4913,1.6217 3.9952,2.1685 1.7609,0.3838 3.7222,0.097 5.1967,-0.5936 3.1306,-1.4652 4.8564,-4.4886 4.8564,-7.956 0,-3.8043 -2.7933,-5.5048 -4.3147,-7.1736 -0.5453,-0.5978 -0.9034,-0.8977 -1.4558,-1.398 -1.7881,-1.6198 -4.1001,-3.9498 -5.8065,-5.7062 l -3.4725,-3.659 c -0.4416,-0.4835 -0.4855,-0.4742 -0.926,9e-4 -1.946,2.0979 -3.6715,3.9078 -5.6895,5.9253 -0.487,0.487 -0.9416,0.9323 -1.4609,1.3918 -0.5551,0.4923 -0.8876,0.8645 -1.4417,1.4108 l -3.0291,2.7805 c -0.2617,0.244 -0.4281,0.4895 -0.6959,0.7279 -0.8754,0.7767 -1.3655,1.3493 -1.9202,2.4662 -3.5989,7.2425 4.6822,14.8583 11.425,10.9108 0.8881,-0.5202 1.3595,-1.0874 1.7331,-1.2648 z M 5.0315,94.0303 5.0281,94.0331 4.9535,94.0929 c -0.0909,0.0735 -0.1811,0.1474 -0.2692,0.222 -3.1542,2.6714 -5.0151,6.7907 -4.6449,11.2422 0.1341,1.6146 0.5508,3.1374 1.1962,4.5241 2.2723,4.8767 7.3817,8.0623 13.0258,7.5932 19.1659,-1.5937 9.724,-27.9233 47.5719,-30.2783 C 51.177,84.7037 21.1156,86.5449 10.9287,90.7002 8.6803,91.6174 6.6779,92.717 5.0315,94.0303 Z m 4.5848,-8.7676 c 5.9743,-2.4369 18.784,-4.0779 30.5067,-4.4753 0.3401,-0.7157 0.6664,-1.4074 0.9802,-2.0699 0.3405,-0.7217 0.6783,-1.4451 1.0145,-2.1702 l 0.0083,-2e-4 c 3.3939,-7.2536 6.3221,-13.8569 8.4257,-18.0678 2.1035,4.2109 5.0314,10.8142 8.4254,18.0678 l 0.0082,2e-4 c 0.3362,0.7251 0.6741,1.4485 1.0171,2.1702 5.3523,11.3948 15.1557,31.3422 23.4465,36.1525 3.4253,1.9883 6.5412,2.5121 10.4621,2.6876 3.6411,0.1627 9.5612,0.1627 15.4814,0.1627 L 59.4672,17.8965 53.3636,5.6928 50.5505,0.072 47.7394,5.6928 41.6358,17.8965 7.454,86.2418 c 0.6908,-0.3472 1.4128,-0.6732 2.1623,-0.9791 z m 135.4192,7.4991 c -5.017,1.6962 -26.591,0 -33.4607,0 0,0.8181 0,1.6364 0.3104,2.9469 3.5387,14.9272 14.4391,22.0116 29.5404,22.0116 16.4392,0 30.3199,-10.5302 34.7454,-24.9585 0.9598,-3.1289 1.4748,-6.4409 1.4748,-9.8688 0,-19.2348 -16.2164,-34.8273 -36.2202,-34.8273 H 92.6133 c 0.1037,1.2223 0.2077,2.4449 0.4614,3.8126 0.2537,1.3677 0.658,2.8803 1.2742,4.5691 0.6165,1.6886 1.4457,3.5538 2.4092,5.1441 0.9632,1.5905 2.0616,2.906 3.4395,4.17 1.378,1.264 3.0359,2.4764 4.7503,3.4608 0.8706,0.4995 1.7552,0.9406 2.602,1.3181 0.8217,0.3668 1.6078,0.6747 2.3091,0.9196 1.4249,0.4972 2.5021,0.7356 3.5798,0.9743 h 27.9868 c 6.0074,0 10.8774,4.6825 10.8774,10.4587 0,4.5595 -3.0345,8.4376 -7.2675,9.8688 z"
     style="fill:url(#grad2)"
     id="path10" />
  <path
     d="m 213.4444,117.3856 c -0.2616,0 -0.39,-0.1558 -0.39,-0.4723 l -0.0137,-16.626 c 0,-0.3256 0.1466,-0.486 0.4403,-0.486 h 0.8756 c 0.2845,0 0.4311,0.1698 0.4311,0.5089 l -0.0274,14.1088 9.3492,-14.3241 c 0.078,-0.1332 0.1649,-0.2155 0.2567,-0.2524 0.0411,-0.0275 0.0963,-0.0412 0.1604,-0.0412 h 0.8713 c 0.1238,0 0.2247,0.0458 0.3025,0.133 0.078,0.0917 0.1146,0.2018 0.1146,0.3393 v 16.6397 c 0,0.3165 -0.1375,0.4723 -0.4171,0.4723 h -0.8988 c -0.2704,0 -0.4034,-0.1604 -0.4034,-0.4814 l 0.0138,-14.1592 -9.3218,14.3424 c -0.1375,0.1973 -0.2844,0.2982 -0.4448,0.2982 z m 22.2774,0.1741 c -0.2521,0 -0.4265,-0.064 -0.5225,-0.1878 -0.0644,-0.0826 -0.0964,-0.1653 -0.0964,-0.2567 v -0.7107 c 0,-0.0964 0.0275,-0.1927 0.0826,-0.2799 0.0869,-0.1284 0.243,-0.1878 0.4537,-0.1878 0.9677,0 1.7105,-0.2982 2.2239,-0.8943 0.5183,-0.596 0.775,-1.4397 0.775,-2.5355 v -12.2197 c 0,-0.3256 0.1421,-0.486 0.4308,-0.486 h 10.7572 c 0.2796,0 0.4171,0.1698 0.4171,0.5089 v 16.5803 c 0,0.3302 -0.1421,0.4951 -0.4311,0.4951 h -0.8985 c -0.2705,0 -0.4037,-0.1649 -0.4037,-0.4951 v -15.4111 h -8.1247 v 11.367 c 0,1.3936 -0.39,2.5126 -1.1693,3.3425 -0.8436,0.9125 -2.0083,1.3708 -3.4941,1.3708 z m 24.4971,0 c -0.2521,0 -0.4265,-0.064 -0.5226,-0.1878 -0.0643,-0.0826 -0.0963,-0.1653 -0.0963,-0.2567 v -0.7107 c 0,-0.0964 0.0274,-0.1927 0.0826,-0.2799 0.0869,-0.1284 0.243,-0.1878 0.4537,-0.1878 0.9677,0 1.7104,-0.2982 2.2239,-0.8943 0.5183,-0.596 0.775,-1.4397 0.775,-2.5355 v -12.2197 c 0,-0.3256 0.1421,-0.486 0.4308,-0.486 h 10.7572 c 0.2796,0 0.4171,0.1698 0.4171,0.5089 v 16.5803 c 0,0.3302 -0.1421,0.4951 -0.4311,0.4951 h -0.8986 c -0.2704,0 -0.4036,-0.1649 -0.4036,-0.4951 v -15.4111 h -8.1248 v 11.367 c 0,1.3936 -0.3899,2.5126 -1.1692,3.3425 -0.8437,0.9125 -2.0083,1.3708 -3.4941,1.3708 z m 37.8218,0.1607 c -2.0221,0 -3.7093,-0.6787 -5.0621,-2.0404 -1.3803,-1.3802 -2.0678,-3.0861 -2.0678,-5.1172 v -1.2242 h -2.7696 v 7.5519 c 0,0.3302 -0.1376,0.4951 -0.4171,0.4951 h -0.9126 c -0.2753,0 -0.4174,-0.1649 -0.4174,-0.4951 v -16.5803 c 0,-0.3208 0.1421,-0.486 0.4174,-0.4952 h 0.9126 c 0.2795,0 0.4171,0.1653 0.4171,0.4952 v 7.4052 h 2.7696 v -1.0363 c 0,-2.0312 0.6875,-3.7459 2.0678,-5.1445 1.3342,-1.3711 3.0172,-2.0498 5.0483,-2.0406 0.9949,0 1.9349,0.179 2.8154,0.5366 0.8848,0.3576 1.6461,0.8574 2.2925,1.504 1.3848,1.3894 2.0818,3.1041 2.0818,5.1445 v 3.8837 c 0,2.0403 -0.697,3.7462 -2.0818,5.1172 -1.3803,1.3617 -3.0767,2.0404 -5.0941,2.0404 z m 0,-1.5958 c 1.5589,0 2.8565,-0.5272 3.8974,-1.5726 1.0455,-1.0684 1.5726,-2.3889 1.5726,-3.9618 v -3.9523 c 0,-1.5772 -0.5271,-2.898 -1.5726,-3.9618 -1.0318,-1.0497 -2.3294,-1.5772 -3.8974,-1.5863 -1.5498,0 -2.8383,0.5317 -3.8655,1.5863 -1.0408,1.0547 -1.5589,2.38 -1.5589,3.9618 v 3.9249 c 0,1.6003 0.5181,2.9254 1.5589,3.9754 1.0364,1.0546 2.3248,1.5864 3.8655,1.5864 z m 20.6822,1.3299 c -0.9951,0 -1.8799,-0.2338 -2.6504,-0.7015 -0.7701,-0.4449 -1.3525,-1.087 -1.7424,-1.9215 l -0.0275,-0.1192 -0.0411,-0.1329 c -0.0552,-0.1101 -0.0689,-0.2247 -0.0458,-0.3485 0.0229,-0.1284 0.0869,-0.211 0.1924,-0.2567 l 0.486,-0.3119 c 0.3119,-0.0778 0.5183,-0.0137 0.6144,0.1881 0.009,0.009 0.014,0.0552 0.014,0.1284 0,0.078 0.005,0.1192 0.0137,0.1283 0.2979,0.6098 0.7656,1.0775 1.4123,1.3985 0.5454,0.2751 1.082,0.4174 1.6092,0.4174 h 0.9952 c 0.903,0 1.7055,-0.2981 2.4071,-0.8896 0.7518,-0.6235 1.1326,-1.4214 1.1418,-2.3888 v -0.7797 c 0,-0.903 -0.3028,-1.6461 -0.9034,-2.2193 -0.5732,-0.5546 -1.2885,-0.8299 -2.1458,-0.8299 h -2.1919 c -0.1512,0.009 -0.275,-0.0274 -0.3713,-0.1146 -0.0918,-0.0869 -0.1376,-0.2015 -0.1376,-0.3576 v -0.4677 c 0,-0.2888 0.179,-0.4309 0.5367,-0.4309 h 2.1229 c 0.7427,0 1.3662,-0.2613 1.8659,-0.7796 0.5092,-0.5363 0.7614,-1.2058 0.7522,-1.9991 v -0.5135 c 0,-0.7979 -0.3165,-1.4766 -0.9537,-2.0403 -0.6006,-0.5458 -1.293,-0.8208 -2.0818,-0.8208 h -0.8208 c -0.5731,0 -1.1003,0.1467 -1.5817,0.4446 -0.5229,0.3119 -0.8988,0.7476 -1.1327,1.3022 -0.005,0.009 -0.009,0.0643 -0.009,0.1606 -0.0183,0.1009 -0.0321,0.1513 -0.0412,0.1604 -0.0369,0.1101 -0.1146,0.1835 -0.2293,0.2247 -0.1146,0.0412 -0.2293,0.032 -0.3348,-0.0229 l -0.564,-0.3622 c -0.2064,-0.1238 -0.2476,-0.321 -0.1238,-0.5915 0.0183,-0.0183 0.0275,-0.0689 0.0275,-0.1512 0,-0.0872 0.004,-0.1332 0.0137,-0.1424 0.3671,-0.9031 1.0317,-1.5955 1.99,-2.0677 0.7339,-0.344 1.5821,-0.5138 2.5495,-0.5138 h 0.3393 c 1.2794,0 2.366,0.39 3.2599,1.1693 0.9537,0.8345 1.4214,1.8982 1.4123,3.2004 v 0.5092 c 0,1.4854 -0.6327,2.6409 -1.8937,3.4663 0.7522,0.4448 1.3113,0.9537 1.6784,1.5177 0.4491,0.6787 0.6784,1.458 0.6876,2.334 v 0.8207 c 0,1.4077 -0.5363,2.5538 -1.6001,3.4389 -0.986,0.8436 -2.1827,1.2656 -3.5858,1.2656 z m 16.7572,-0.0689 c -0.2616,0 -0.39,-0.1558 -0.39,-0.4723 l -0.0137,-16.626 c 0,-0.3256 0.1466,-0.486 0.4402,-0.486 h 0.8757 c 0.2845,0 0.4311,0.1698 0.4311,0.5089 l -0.0274,14.1088 9.3491,-14.3241 c 0.0781,-0.1332 0.165,-0.2155 0.2568,-0.2524 0.0411,-0.0275 0.0963,-0.0412 0.1603,-0.0412 h 0.8714 c 0.1238,0 0.2247,0.0458 0.3025,0.133 0.078,0.0917 0.1146,0.2018 0.1146,0.3393 v 16.6397 c 0,0.3165 -0.1375,0.4723 -0.4171,0.4723 h -0.8988 c -0.2704,0 -0.4034,-0.1604 -0.4034,-0.4814 l 0.0137,-14.1592 -9.3217,14.3424 c -0.1375,0.1973 -0.2845,0.2982 -0.4448,0.2982 z m 35.1527,-1.7056 c -1.3757,1.3617 -3.0767,2.0404 -5.1033,2.0404 -2.0312,0 -3.7187,-0.6787 -5.0712,-2.0404 -1.3803,-1.3802 -2.0681,-3.0861 -2.0681,-5.1172 v -3.8837 c 0,-2.0312 0.6878,-3.7459 2.0681,-5.1445 0.6509,-0.6558 1.4122,-1.1555 2.2833,-1.5131 0.8668,-0.3531 1.8022,-0.5275 2.7925,-0.5275 0.9948,0 1.9302,0.179 2.8108,0.5366 0.8756,0.3576 1.6369,0.8574 2.2833,1.504 1.3757,1.38 2.0681,3.095 2.0681,5.1445 v 3.8837 c 0,2.0497 -0.6879,3.7553 -2.0635,5.1172 z m -5.085,0.4446 c 1.5589,0 2.852,-0.5272 3.8837,-1.5726 1.0455,-1.0684 1.5726,-2.3889 1.5726,-3.9618 v -3.9523 c 0,-1.5772 -0.5271,-2.898 -1.5726,-3.9618 -1.0317,-1.0497 -2.3248,-1.5726 -3.8837,-1.5772 -1.5589,-0.005 -2.852,0.5226 -3.8791,1.5772 -1.0409,1.0547 -1.5635,2.38 -1.5727,3.9618 v 3.9249 c 0,1.6003 0.5226,2.9254 1.5727,3.9754 1.0363,1.0546 2.3293,1.5864 3.8791,1.5864 z m 18.2337,1.261 c -0.2753,0 -0.4174,-0.1604 -0.4174,-0.4814 v -16.594 c 0,-0.1512 0.0412,-0.275 0.1146,-0.3668 0.0781,-0.0963 0.179,-0.1421 0.3028,-0.1421 h 0.9122 c 0.2891,0 0.4312,0.1698 0.4312,0.5089 v 7.4418 h 9.4455 v -7.4418 c 0,-0.3299 0.1375,-0.4997 0.4174,-0.5089 h 0.8985 c 0.2845,0 0.4311,0.1698 0.4311,0.5089 v 16.5803 c 0,0.3302 -0.1466,0.4951 -0.4311,0.4951 h -0.8985 c -0.2799,0 -0.4174,-0.1649 -0.4174,-0.4951 v -7.5382 h -9.4455 v 7.5382 c 0,0.3302 -0.1376,0.4951 -0.4174,0.4951 z m 24.7538,0 c -0.2616,0 -0.39,-0.1558 -0.39,-0.4723 l -0.0137,-16.626 c 0,-0.3256 0.1467,-0.486 0.4403,-0.486 h 0.8756 c 0.2845,0 0.4312,0.1698 0.4312,0.5089 l -0.0275,14.1088 9.3492,-14.3241 c 0.078,-0.1332 0.1649,-0.2155 0.2567,-0.2524 0.0412,-0.0275 0.0964,-0.0412 0.1604,-0.0412 h 0.8714 c 0.1237,0 0.2247,0.0458 0.3024,0.133 0.0781,0.0917 0.1146,0.2018 0.1146,0.3393 v 16.6397 c 0,0.3165 -0.1375,0.4723 -0.417,0.4723 H 419.59 c -0.2704,0 -0.4033,-0.1604 -0.4033,-0.4814 l 0.0137,-14.1592 -9.3217,14.3424 c -0.1376,0.1973 -0.2845,0.2982 -0.4449,0.2982 z m 30.0174,0.3348 c -1.99,0 -3.659,-0.6696 -5.0118,-2.0129 -1.3985,-1.3711 -2.0955,-3.1181 -2.0955,-5.2411 v -3.7322 c 0,-2.1046 0.697,-3.8425 2.0955,-5.2133 1.3803,-1.3528 3.0584,-2.0269 5.0347,-2.0269 1.0866,0 2.1321,0.2799 3.1453,0.8439 0.9585,0.5272 1.7287,1.2653 2.311,2.2053 0.1147,0.1881 0.1513,0.3302 0.1055,0.4265 -0.0411,0.101 -0.0826,0.1741 -0.1192,0.2156 l -0.7381,0.3759 c -0.179,0.1467 -0.3577,0.0735 -0.5366,-0.2155 -0.4494,-0.6879 -1.0501,-1.2425 -1.8019,-1.6644 -0.7245,-0.3942 -1.4995,-0.5915 -2.3248,-0.5915 -1.5589,0 -2.852,0.5317 -3.8792,1.5863 -1.05,1.0638 -1.5772,2.4349 -1.5863,4.1084 v 3.6408 c 0,1.6872 0.5271,3.0583 1.5863,4.1267 1.0181,1.0454 2.3111,1.5726 3.8792,1.5726 0.8162,0 1.5866,-0.2016 2.3202,-0.6007 0.729,-0.3988 1.3296,-0.9491 1.8065,-1.6598 0.1972,-0.2567 0.385,-0.321 0.564,-0.1878 l 0.7107,0.3531 c 0.0549,0.0503 0.1009,0.1238 0.1467,0.2106 0.0366,0.1101 -0.009,0.2522 -0.133,0.4312 -0.5366,0.9034 -1.3067,1.6415 -2.311,2.2055 -1.0223,0.5638 -2.077,0.8437 -3.1682,0.8437 z m 20.0997,-0.3348 c -0.2936,0 -0.4403,-0.1973 -0.4403,-0.5915 v -15.3787 h -4.7825 c -0.3253,0 -0.4906,-0.1421 -0.4997,-0.4174 v -0.7518 c 0,-0.1467 0.0506,-0.2522 0.1421,-0.3302 0.0963,-0.0781 0.2109,-0.1147 0.3576,-0.1147 h 11.2935 c 0.3164,0 0.4722,0.133 0.4722,0.4034 v 0.7659 c 0,0.2933 -0.1512,0.4448 -0.4585,0.4448 h -4.7822 v 15.3787 c 0,0.3942 -0.147,0.5915 -0.4403,0.5915 z"
     stroke-width="2"
     stroke="#6b76d6"
     id="path12" />
  <path
     d="m 209.6854,36.755 c -0.279,0 -0.475,-0.0829 -0.5882,-0.2564 -0.1055,-0.1658 -0.1131,-0.3994 -0.008,-0.6933 L 220.684,3.7811 c 0.1433,-0.475 0.4375,-0.7086 0.8821,-0.7086 h 3.1361 c 0.4448,0 0.7463,0.2336 0.9046,0.7086 l 11.5944,32.0242 c 0.0905,0.2787 0.0756,0.5049 -0.0451,0.686 -0.1132,0.1732 -0.3016,0.2637 -0.5504,0.2637 h -3.0907 c -0.4448,0 -0.7314,-0.2262 -0.8594,-0.686 l -2.3672,-6.7545 h -14.3082 l -2.3447,6.7545 c -0.1433,0.4598 -0.4372,0.686 -0.882,0.686 z m 7.7271,-11.5492 h 11.4435 l -5.2167,-14.9793 -0.5052,-2.5782 -0.5274,2.5782 z"
     style="fill:#eeeeee;fill-rule:evenodd"
     id="path14" />
  <path
     d="m 239.6741,37.0642 c -0.5427,0 -0.9046,-0.1055 -1.078,-0.3092 -0.1357,-0.1055 -0.2034,-0.2564 -0.2034,-0.4674 v -2.2013 c 0,-0.211 0.0527,-0.3844 0.1582,-0.5351 0.1357,-0.2338 0.4071,-0.3545 0.8141,-0.3545 1.4022,0 2.4653,-0.4748 3.2041,-1.4321 0.6933,-0.8973 1.0403,-2.1711 1.0403,-3.8221 V 8.749 c 0,-0.5729 0.2637,-0.8668 0.7915,-0.8821 h 18.7938 c 0.5052,0 0.754,0.2866 0.754,0.8595 v 27.1692 c 0,0.5728 -0.2488,0.8594 -0.754,0.8594 h -2.8495 c -0.4827,0 -0.7315,-0.2866 -0.7464,-0.8594 V 11.9982 l -11.617,-0.0226 v 17.0297 c 0,2.3974 -0.7387,4.3273 -2.2089,5.7823 -1.5001,1.515 -3.5355,2.2766 -6.0988,2.2766 z"
     style="fill:#eeeeee;fill-rule:evenodd"
     id="path16" />
  <path
     d="m 282.6138,37.3734 c -1.6961,0 -3.2944,-0.2943 -4.7944,-0.8748 -1.5004,-0.5805 -2.812,-1.4095 -3.9276,-2.48 -2.405,-2.2994 -3.6035,-5.1941 -3.6035,-8.6845 v -5.9179 c 0,-3.4904 1.1835,-6.3927 3.5355,-8.7223 2.3144,-2.269 5.2243,-3.3922 8.7449,-3.3773 1.4473,0 2.8269,0.2713 4.1462,0.8144 1.3116,0.5427 2.4803,1.3494 3.498,2.4046 2.269,2.3446 3.3998,5.4582 3.3998,9.348 v 2.3144 c 0,0.9421 -0.4899,1.372 -1.4775,1.2815 h -0.3997 c -0.0302,0.0152 -0.1204,0.0302 -0.2637,0.0451 h -16.9395 v 1.7641 c 0,2.4352 0.7842,4.4102 2.3596,5.9481 1.5004,1.4699 3.37,2.2086 5.5938,2.2239 2.5254,0 4.5307,-1.0479 6.0006,-3.1511 0.3091,-0.4299 0.6107,-0.5353 0.9049,-0.3167 l 2.3897,1.2214 c 0.294,0.2637 0.3016,0.6256 0.0226,1.0777 -0.9424,1.4702 -2.2089,2.684 -3.7996,3.6261 -1.6961,0.9726 -3.4903,1.4553 -5.3901,1.4553 z m -8.0815,-17.1581 h 15.0848 v -0.7765 c 0,-2.1937 -0.5729,-4.0633 -1.7263,-5.6088 -1.2814,-1.7413 -3.0833,-2.6084 -5.4051,-2.6084 -2.3446,0 -4.2593,0.7915 -5.7444,2.3672 -1.4775,1.5604 -2.209,3.4755 -2.209,5.7368 z"
     style="fill:#eeeeee;fill-rule:evenodd"
     id="path18" />
  <path
     d="m 301.0542,36.755 c -0.5729,0 -0.8595,-0.3317 -0.8595,-0.9951 V 8.8846 c 0,-0.6783 0.2939,-1.0177 0.8821,-1.0177 h 2.4501 c 0.6634,0 0.9951,0.3543 0.9951,1.0632 v 13.4487 c 0.6333,-0.2637 1.2437,-0.6936 1.8318,-1.2814 0.49,-0.49 0.8519,-0.9425 1.1083,-1.372 l 5.277,-8.3001 c 0.9876,-1.5906 1.9751,-2.6236 2.9551,-3.0983 0.7991,-0.4073 2.0052,-0.6183 3.626,-0.6183 0.3696,0 0.6333,0.0829 0.7915,0.2488 0.1659,0.1582 0.2488,0.3619 0.2488,0.5954 v 2.2693 c 0,0.5504 -0.2939,0.8293 -0.8894,0.8443 -0.7463,0 -1.3646,0.1808 -1.8546,0.5503 -0.3695,0.2637 -0.7613,0.7464 -1.1912,1.4324 l -4.5081,7.3125 10.3205,14.2933 c 0.2034,0.339 0.2638,0.6707 0.1735,0.9948 -0.136,0.3394 -0.4073,0.5052 -0.8144,0.5052 h -2.8946 c -0.3997,0 -0.7689,-0.2411 -1.1083,-0.7311 l -8.7223,-12.009 c -0.8064,0.8668 -1.3644,1.4171 -1.6583,1.6509 -0.8671,0.7236 -1.7641,1.2062 -2.6913,1.4623 v 8.5641 c 0,0.7086 -0.3168,1.0628 -0.95,1.0628 z"
     style="fill:#eeeeee;fill-rule:evenodd"
     id="path20" />
  <path
     d="m 337.7823,37.3734 c -1.6358,0 -3.1812,-0.2943 -4.6514,-0.8821 -1.4623,-0.5881 -2.7364,-1.4324 -3.8295,-2.5181 -2.322,-2.2842 -3.4904,-5.1715 -3.4904,-8.6619 v -5.9177 c 0,-1.7037 0.3089,-3.3019 0.9196,-4.7947 0.6107,-1.4851 1.4702,-2.7818 2.5708,-3.8822 2.2843,-2.2842 5.1186,-3.415 8.5035,-3.4001 1.8546,0 3.6413,0.4976 5.345,1.5004 1.6357,0.9573 2.9023,2.2238 3.7992,3.7992 0.2943,0.4976 0.279,0.8595 -0.0451,1.0781 l -2.2766,1.1308 c -0.3241,0.2187 -0.6256,0.0979 -0.9046,-0.3542 -0.6485,-0.9876 -1.5004,-1.7718 -2.5632,-2.3672 -1.0553,-0.5881 -2.1712,-0.8821 -3.3322,-0.8821 -2.2239,0 -4.0706,0.7613 -5.5557,2.2919 -1.4778,1.5226 -2.2166,3.5053 -2.2166,5.9478 v 5.7445 c 0,2.4577 0.7388,4.463 2.2315,6.0085 1.44,1.4851 3.2868,2.2311 5.5408,2.2464 1.161,0 2.2693,-0.2866 3.3096,-0.8595 1.0479,-0.5729 1.9147,-1.3796 2.6083,-2.4275 0.2638,-0.4296 0.5653,-0.5202 0.9047,-0.2863 l 2.254,1.1232 c 0.2939,0.2637 0.3092,0.6183 0.0451,1.0628 -0.8668,1.5757 -2.1333,2.8499 -3.7992,3.8222 -1.6812,0.9875 -3.4678,1.4778 -5.3676,1.4778 z"
     style="fill:#eeeeee;fill-rule:evenodd"
     id="path22" />
  <path
     d="m 364.1526,37.3734 c -1.6961,0 -3.2943,-0.2943 -4.7944,-0.8748 -1.5004,-0.5805 -2.812,-1.4095 -3.9276,-2.48 -2.405,-2.2994 -3.6035,-5.1941 -3.6035,-8.6845 v -5.9179 c 0,-3.4904 1.1836,-6.3927 3.5355,-8.7223 2.3144,-2.269 5.2243,-3.3922 8.7449,-3.3773 1.4473,0 2.8269,0.2713 4.1462,0.8144 1.3116,0.5427 2.4803,1.3494 3.498,2.4046 2.269,2.3446 3.3999,5.4582 3.3999,9.348 v 2.3144 c 0,0.9421 -0.49,1.372 -1.4775,1.2815 h -0.3998 c -0.0301,0.0152 -0.1204,0.0302 -0.2637,0.0451 h -16.9394 v 1.7641 c 0,2.4352 0.7842,4.4102 2.3595,5.9481 1.5004,1.4699 3.37,2.2086 5.5939,2.2239 2.5254,0 4.5306,-1.0479 6.0005,-3.1511 0.3092,-0.4299 0.6107,-0.5353 0.9049,-0.3167 l 2.3898,1.2214 c 0.2939,0.2637 0.3015,0.6256 0.0225,1.0777 -0.9424,1.4702 -2.2089,2.684 -3.7995,3.6261 -1.6961,0.9726 -3.4904,1.4553 -5.3902,1.4553 z m -8.0814,-17.1581 h 15.0848 v -0.7765 c 0,-2.1937 -0.5729,-4.0633 -1.7263,-5.6088 -1.2815,-1.7413 -3.0834,-2.6084 -5.4051,-2.6084 -2.3446,0 -4.2594,0.7915 -5.7445,2.3672 -1.4775,1.5604 -2.2089,3.4755 -2.2089,5.7368 z"
     style="fill:#eeeeee;fill-rule:evenodd"
     id="path24" />
  <path
     d="m 392.6862,5.5226 c -1.387,0 -2.548,-0.4524 -3.4904,-1.3647 -0.9272,-0.897 -1.3946,-1.9827 -1.3946,-3.2492 0,-0.5427 0.2262,-0.8217 0.6634,-0.8366 h 1.3946 c 0.3845,0 0.5656,0.2262 0.5503,0.686 0,0.5579 0.1961,1.0326 0.5958,1.4324 0.4296,0.4597 1.0025,0.686 1.7263,0.686 0.6634,0 1.2211,-0.2412 1.6735,-0.7315 0.4147,-0.4521 0.6107,-0.9271 0.6031,-1.4095 0,-0.4448 0.1808,-0.6634 0.5503,-0.6634 h 1.3644 c 0.2262,0 0.3921,0.0829 0.5128,0.2411 0.1129,0.1583 0.1732,0.347 0.1732,0.5504 0,1.2665 -0.4674,2.3595 -1.4095,3.2794 -0.9424,0.9195 -2.1184,1.3796 -3.5132,1.3796 z M 382.3961,36.755 c -0.2564,0 -0.4223,-0.068 -0.5125,-0.196 -0.083,-0.1357 -0.1284,-0.3467 -0.1284,-0.6409 L 381.7326,8.7038 c 0,-0.2487 0.068,-0.4524 0.211,-0.603 0.1357,-0.1583 0.3244,-0.2339 0.558,-0.2339 h 2.7818 c 0.2412,0 0.422,0.083 0.5579,0.2564 0.1281,0.1659 0.1958,0.3693 0.1958,0.6031 L 385.9694,29.7066 399.441,8.3947 c 0.1808,-0.279 0.3769,-0.4372 0.5955,-0.4824 0.0905,-0.0301 0.1433,-0.0454 0.1582,-0.0454 h 2.7367 c 0.2259,0 0.3994,0.0756 0.5427,0.2339 0.1433,0.1506 0.211,0.3466 0.211,0.5805 v 27.2368 c 0,0.558 -0.2488,0.8369 -0.7537,0.8369 h -2.8044 c -0.4826,0 -0.7314,-0.2789 -0.7314,-0.8369 l 0.068,-21.0478 -13.3585,21.2664 c -0.2488,0.4147 -0.5354,0.6183 -0.8595,0.6183 z"
     style="fill:#eeeeee;fill-rule:evenodd"
     id="path26" />
  <path
     d="m 213.7487,84.59 c -0.5053,0 -0.754,-0.2637 -0.754,-0.7915 v -32.009 c 0,-0.5277 0.2487,-0.7918 0.754,-0.7918 h 17.8666 c 0.4976,0 0.7537,0.2564 0.7537,0.769 v 2.6312 c 0,0.5049 -0.2561,0.7537 -0.7537,0.7537 h -14.3311 v 8.2549 h 8.0814 c 2.548,0 4.7267,0.8366 6.536,2.4952 1.8848,1.7565 2.8269,3.8974 2.8269,6.4305 v 2.5632 c 0,2.9022 -0.9195,5.2545 -2.7589,7.0637 -1.7943,1.7565 -4.0484,2.6309 -6.7622,2.6309 z m 3.5355,-3.6864 h 7.1994 c 1.6433,0 3.023,-0.5504 4.1312,-1.6358 1.1611,-1.1308 1.7413,-2.5858 1.7413,-4.3499 v -2.3446 c 0,-1.6055 -0.6257,-2.9248 -1.8769,-3.9727 -1.1458,-0.9574 -2.5029,-1.44 -4.0633,-1.44 h -7.1317 z m 34.7155,4.3047 c -1.6961,0 -3.2944,-0.2942 -4.7944,-0.8747 -1.5004,-0.5805 -2.812,-1.4095 -3.9276,-2.48 -2.405,-2.2995 -3.6036,-5.1941 -3.6036,-8.6845 v -5.9179 c 0,-3.4904 1.1836,-6.3927 3.5356,-8.7224 2.3144,-2.269 5.2243,-3.3922 8.7448,-3.3772 1.4474,0 2.827,0.2713 4.1463,0.8143 1.3116,0.5427 2.4803,1.3495 3.498,2.4047 2.269,2.3446 3.3998,5.4582 3.3998,9.348 v 2.3144 c 0,0.9421 -0.4899,1.372 -1.4775,1.2814 h -0.3997 c -0.0302,0.0153 -0.1204,0.0302 -0.2637,0.0452 h -16.9395 v 1.7641 c 0,2.4351 0.7842,4.4102 2.3596,5.9481 1.5004,1.4699 3.3699,2.2086 5.5938,2.2239 2.5254,0 4.5307,-1.048 6.0006,-3.1511 0.3091,-0.4299 0.6107,-0.5354 0.9049,-0.3168 l 2.3897,1.2214 c 0.2939,0.2637 0.3016,0.6257 0.0226,1.0778 -0.9424,1.4702 -2.2089,2.684 -3.7996,3.6261 -1.6961,0.9726 -3.4904,1.4552 -5.3901,1.4552 z m -8.0815,-17.158 h 15.0848 v -0.7766 c 0,-2.1937 -0.5729,-4.0633 -1.7263,-5.6088 -1.2814,-1.7412 -3.0833,-2.6083 -5.4051,-2.6083 -2.3446,0 -4.2593,0.7915 -5.7444,2.3672 -1.4775,1.5604 -2.209,3.4754 -2.209,5.7368 z M 267.19,84.8992 c -0.5428,0 -0.9047,-0.1055 -1.0781,-0.3092 -0.1357,-0.1055 -0.2034,-0.2564 -0.2034,-0.4674 v -2.2013 c 0,-0.211 0.0527,-0.3845 0.1582,-0.5351 0.1357,-0.2338 0.4071,-0.3546 0.8141,-0.3546 1.4022,0 2.4653,-0.4747 3.2041,-1.4321 0.6933,-0.8972 1.0403,-2.1711 1.0403,-3.8221 V 56.5839 c 0,-0.5729 0.2637,-0.8668 0.7915,-0.882 h 18.7938 c 0.5052,0 0.754,0.2866 0.754,0.8595 v 27.1691 c 0,0.5729 -0.2488,0.8595 -0.754,0.8595 h -2.8495 c -0.4827,0 -0.7315,-0.2866 -0.7464,-0.8595 V 59.8332 l -11.617,-0.0226 v 17.0297 c 0,2.3973 -0.7387,4.3273 -2.2089,5.7822 -1.5001,1.515 -3.5355,2.2767 -6.0987,2.2767 z M 300.2167,84.59 c -0.2564,0 -0.4223,-0.068 -0.5126,-0.196 -0.0829,-0.1357 -0.1283,-0.3467 -0.1283,-0.6409 l -0.0226,-27.2143 c 0,-0.2488 0.068,-0.4524 0.211,-0.6031 0.1357,-0.1582 0.3244,-0.2338 0.558,-0.2338 h 2.7818 c 0.2412,0 0.422,0.0829 0.5579,0.2564 0.1281,0.1659 0.1958,0.3692 0.1958,0.6031 L 303.79,77.5415 317.2616,56.2296 c 0.1808,-0.2789 0.3768,-0.4372 0.5955,-0.4823 0.0905,-0.0302 0.1432,-0.0454 0.1582,-0.0454 h 2.7367 c 0.2259,0 0.3994,0.0756 0.5427,0.2338 0.1433,0.1507 0.211,0.3467 0.211,0.5805 v 27.2369 c 0,0.5579 -0.2488,0.8369 -0.7537,0.8369 h -2.8044 c -0.4826,0 -0.7314,-0.279 -0.7314,-0.8369 l 0.068,-21.0479 -13.3585,21.2665 c -0.2488,0.4146 -0.5354,0.6183 -0.8595,0.6183 z m 29.9509,0 c -0.4902,0 -0.739,-0.279 -0.754,-0.8369 V 56.5614 c 0,-0.2638 0.0753,-0.475 0.2186,-0.6257 0.151,-0.1582 0.3241,-0.2338 0.5354,-0.2338 h 2.8721 c 0.4976,0 0.7464,0.2866 0.7464,0.8595 v 11.5114 h 13.5167 V 56.5614 c 0,-0.558 0.2488,-0.8443 0.754,-0.8595 h 2.8495 c 0.4976,0 0.7464,0.2866 0.7464,0.8595 v 27.1691 c 0,0.5729 -0.2488,0.8595 -0.7464,0.8595 h -2.8495 c -0.5052,0 -0.754,-0.2866 -0.754,-0.8595 V 71.9553 h -13.5167 v 11.7752 c 0,0.5729 -0.2412,0.8595 -0.7238,0.8595 z m 39.9246,0.6183 c -1.6357,0 -3.1812,-0.2942 -4.6514,-0.882 -1.4623,-0.5882 -2.7364,-1.4324 -3.8294,-2.5181 -2.3221,-2.2843 -3.4904,-5.1716 -3.4904,-8.662 v -5.9176 c 0,-1.7037 0.3088,-3.302 0.9195,-4.7947 0.6107,-1.4851 1.4702,-2.7818 2.5709,-3.8822 2.2842,-2.2842 5.1185,-3.4151 8.5034,-3.4001 1.8546,0 3.6413,0.4975 5.345,1.5003 1.6357,0.9574 2.9023,2.2239 3.7993,3.7993 0.2942,0.4976 0.2789,0.8595 -0.0452,1.0781 l -2.2766,1.1308 c -0.3241,0.2186 -0.6256,0.0979 -0.9046,-0.3543 -0.6485,-0.9875 -1.5004,-1.7717 -2.5632,-2.3672 -1.0552,-0.5881 -2.1711,-0.882 -3.3322,-0.882 -2.2239,0 -4.0706,0.7613 -5.5557,2.2919 -1.4778,1.5226 -2.2166,3.5053 -2.2166,5.9478 v 5.7444 c 0,2.4578 0.7388,4.463 2.2315,6.0085 1.44,1.4851 3.2868,2.2312 5.5408,2.2465 1.1611,0 2.2693,-0.2866 3.3096,-0.8595 1.0479,-0.5729 1.9147,-1.3797 2.6084,-2.4276 0.2637,-0.4296 0.5652,-0.5201 0.9046,-0.2863 l 2.254,1.1233 c 0.2939,0.2637 0.3092,0.6183 0.0452,1.0628 -0.8669,1.5757 -2.1334,2.8498 -3.7993,3.8221 -1.6812,0.9876 -3.4678,1.4778 -5.3676,1.4778 z M 386.745,84.59 c -0.5728,0 -0.8594,-0.3317 -0.8594,-0.9952 V 56.7196 c 0,-0.6784 0.2939,-1.0177 0.882,-1.0177 h 2.4501 c 0.6635,0 0.9952,0.3543 0.9952,1.0631 v 13.4488 c 0.6332,-0.2637 1.2436,-0.6936 1.8318,-1.2815 0.4899,-0.4899 0.8518,-0.9424 1.1082,-1.372 l 5.2771,-8.3 c 0.9875,-1.5906 1.9751,-2.6236 2.955,-3.0983 0.7991,-0.4074 2.0053,-0.6184 3.6261,-0.6184 0.3695,0 0.6332,0.083 0.7915,0.2488 0.1658,0.1583 0.2488,0.3619 0.2488,0.5955 v 2.2693 c 0,0.5503 -0.294,0.8293 -0.8894,0.8442 -0.7464,0 -1.3647,0.1808 -1.8547,0.5504 -0.3695,0.2637 -0.7613,0.7463 -1.1912,1.4323 l -4.5081,7.3125 10.3206,14.2933 c 0.2033,0.3391 0.2637,0.6708 0.1735,0.9949 -0.136,0.3393 -0.4074,0.5052 -0.8144,0.5052 h -2.8946 c -0.3998,0 -0.769,-0.2412 -1.1083,-0.7311 l -8.7223,-12.0091 c -0.8065,0.8668 -1.3644,1.4172 -1.6584,1.651 -0.8671,0.7235 -1.7641,1.2062 -2.6912,1.4623 v 8.5641 c 0,0.7085 -0.3168,1.0628 -0.9501,1.0628 z m 27.1692,0 c -0.2564,0 -0.4223,-0.068 -0.5125,-0.196 -0.083,-0.1357 -0.1284,-0.3467 -0.1284,-0.6409 l -0.0226,-27.2143 c 0,-0.2488 0.068,-0.4524 0.211,-0.6031 0.1357,-0.1582 0.3244,-0.2338 0.558,-0.2338 h 2.7818 c 0.2412,0 0.422,0.0829 0.558,0.2564 0.128,0.1659 0.1957,0.3692 0.1957,0.6031 l -0.0677,20.9801 13.4716,-21.3119 c 0.1808,-0.2789 0.3769,-0.4372 0.5955,-0.4823 0.0905,-0.0302 0.1433,-0.0454 0.1582,-0.0454 h 2.7367 c 0.2259,0 0.3994,0.0756 0.5427,0.2338 0.1433,0.1507 0.211,0.3467 0.211,0.5805 v 27.2369 c 0,0.5579 -0.2488,0.8369 -0.7537,0.8369 h -2.8044 c -0.4826,0 -0.7314,-0.279 -0.7314,-0.8369 l 0.068,-21.0479 -13.3585,21.2665 c -0.2488,0.4146 -0.5354,0.6183 -0.8595,0.6183 z m 40.2862,-31.2324 c -1.387,0 -2.548,-0.4525 -3.4904,-1.3647 -0.9272,-0.897 -1.3946,-1.9827 -1.3946,-3.2492 0,-0.5427 0.2262,-0.8217 0.6634,-0.8367 h 1.3946 c 0.3845,0 0.5656,0.2263 0.5503,0.686 0,0.558 0.1961,1.0327 0.5958,1.4324 0.4296,0.4598 1.0025,0.686 1.7263,0.686 0.6634,0 1.2211,-0.2411 1.6735,-0.7314 0.4147,-0.4522 0.6107,-0.9272 0.6031,-1.4095 0,-0.4449 0.1808,-0.6635 0.5503,-0.6635 h 1.3644 c 0.2263,0 0.3921,0.083 0.5128,0.2412 0.1129,0.1582 0.1732,0.347 0.1732,0.5503 0,1.2666 -0.4674,2.3596 -1.4095,3.2794 -0.9424,0.9196 -2.1184,1.3797 -3.5132,1.3797 z M 443.9103,84.59 c -0.2564,0 -0.4223,-0.068 -0.5125,-0.196 -0.083,-0.1357 -0.1284,-0.3467 -0.1284,-0.6409 l -0.0226,-27.2143 c 0,-0.2488 0.068,-0.4524 0.211,-0.6031 0.1357,-0.1582 0.3244,-0.2338 0.558,-0.2338 h 2.7818 c 0.2412,0 0.422,0.0829 0.558,0.2564 0.128,0.1659 0.1957,0.3692 0.1957,0.6031 l -0.0677,20.9801 13.4716,-21.3119 c 0.1808,-0.2789 0.3769,-0.4372 0.5955,-0.4823 0.0905,-0.0302 0.1433,-0.0454 0.1582,-0.0454 h 2.7367 c 0.2259,0 0.3994,0.0756 0.5427,0.2338 0.1433,0.1507 0.211,0.3467 0.211,0.5805 v 27.2369 c 0,0.5579 -0.2488,0.8369 -0.7537,0.8369 h -2.8044 c -0.4826,0 -0.7314,-0.279 -0.7314,-0.8369 l 0.068,-21.0479 -13.3585,21.2665 c -0.2488,0.4146 -0.5354,0.6183 -0.8595,0.6183 z"
     style="fill:#eeeeee;fill-rule:evenodd"
     id="path28" />
</svg>
