<?xml version="1.0" encoding="UTF-8" standalone="no"?>
<svg
   version="1.1"
   width="177.84"
   height="118.08"
   id="svg12"
   viewBox="0 0 177.84 118.08"
   sodipodi:docname="logo only.cdr"
   xmlns:inkscape="http://www.inkscape.org/namespaces/inkscape"
   xmlns:sodipodi="http://sodipodi.sourceforge.net/DTD/sodipodi-0.dtd"
   xmlns:xlink="http://www.w3.org/1999/xlink"
   xmlns="http://www.w3.org/2000/svg"
   xmlns:svg="http://www.w3.org/2000/svg">
  <sodipodi:namedview
     id="namedview14"
     pagecolor="#ffffff"
     bordercolor="#666666"
     borderopacity="1.0"
     inkscape:pageshadow="2"
     inkscape:pageopacity="0.0"
     inkscape:pagecheckerboard="0" />
  <defs
     id="defs8">
    <linearGradient
       id="grad1">
      <stop
         offset="0%"
         stop-color="#6b3fc4"
         stop-opacity="1.0000"
         id="stop2" />
      <stop
         offset="100%"
         stop-color="#6bbded"
         stop-opacity="1.0000"
         id="stop4" />
    </linearGradient>
    <linearGradient
       xlink:href="#grad1"
       id="grad2"
       x1="0"
       y1="0"
       x2="0"
       y2="1"
       gradientTransform="rotate(-154,0.5,0.5)"
       gradientUnits="objectBoundingBox" />
  </defs>
  <path
     d="m 102.1042,24.9242 c -0.4362,2.2224 -1.9981,4.3464 -3.4925,5.8221 -0.1114,0.1105 -2.0793,1.4694 -0.5188,1.4694 h 11.0543 c 1.6565,0 -0.7257,-1.3762 -1.9925,-3.1005 -0.7843,-1.0675 -1.7198,-2.6118 -2.0441,-4.2225 0.5114,0.2617 1.4914,1.6217 3.9952,2.1685 1.7609,0.3838 3.7222,0.097 5.1968,-0.5935 3.1305,-1.4653 4.8563,-4.4887 4.8563,-7.956 0,-3.8044 -2.7933,-5.5049 -4.3146,-7.1737 -0.5454,-0.5978 -0.9034,-0.8977 -1.4559,-1.398 -1.7881,-1.6197 -4.1001,-3.9498 -5.8065,-5.7062 l -3.4725,-3.6589 c -0.4416,-0.4836 -0.4855,-0.4743 -0.926,8e-4 -1.946,2.0979 -3.6715,3.9079 -5.6894,5.9253 -0.487,0.487 -0.9417,0.9323 -1.461,1.3918 -0.555,0.4924 -0.8876,0.8646 -1.4417,1.4108 l -3.0291,2.7805 c -0.2617,0.2441 -0.4281,0.4895 -0.6959,0.7279 -0.8754,0.7767 -1.3655,1.3493 -1.9202,2.4662 -3.5989,7.2425 4.6822,14.8583 11.425,10.9108 0.8881,-0.5201 1.3595,-1.0874 1.7331,-1.2648 z M 5.1324,94.174 5.129,94.1769 5.0545,94.2367 c -0.091,0.0734 -0.1812,0.1474 -0.2693,0.2219 -3.1541,2.6714 -5.0151,6.7907 -4.6449,11.2422 0.1341,1.6146 0.5508,3.1374 1.1962,4.5241 2.2723,4.8767 7.3817,8.0623 13.0258,7.5932 19.1659,-1.5937 9.724,-27.9233 47.5719,-30.2783 C 51.2779,84.8475 21.2165,86.6886 11.0296,90.8439 8.7812,91.7612 6.7788,92.8607 5.1324,94.174 Z m 4.5848,-8.7675 c 5.9743,-2.437 18.784,-4.078 30.5067,-4.4754 0.3402,-0.7157 0.6664,-1.4074 0.9802,-2.0698 0.3405,-0.7217 0.6784,-1.4451 1.0145,-2.1702 l 0.0083,-3e-4 c 3.3939,-7.2536 6.3221,-13.8569 8.4257,-18.0678 2.1036,4.2109 5.0315,10.8142 8.4254,18.0678 l 0.0082,3e-4 c 0.3362,0.7251 0.6741,1.4485 1.0171,2.1702 5.3524,11.3947 15.1557,31.3421 23.4465,36.1525 3.4253,1.9882 6.5412,2.512 10.4621,2.6875 3.6411,0.1627 9.5612,0.1627 15.4814,0.1627 L 59.5681,18.0403 53.4645,5.8365 50.6514,0.2157 47.8403,5.8365 41.7368,18.0403 7.5549,86.3855 c 0.6908,-0.3472 1.4128,-0.6732 2.1623,-0.979 z m 135.4192,7.499 c -5.017,1.6963 -26.591,0 -33.4607,0 0,0.8181 0,1.6365 0.3104,2.9469 3.5388,14.9273 14.4391,22.0116 29.5404,22.0116 16.4392,0 30.3199,-10.5301 34.7454,-24.9585 0.9598,-3.1289 1.4748,-6.4409 1.4748,-9.8688 0,-19.2348 -16.2164,-34.8273 -36.2202,-34.8273 H 92.7142 c 0.1037,1.2223 0.2078,2.4449 0.4615,3.8126 0.2537,1.3677 0.6579,2.8803 1.2741,4.5691 0.6166,1.6886 1.4457,3.5538 2.4092,5.1441 0.9632,1.5905 2.0616,2.9061 3.4396,4.17 1.3779,1.264 3.0359,2.4764 4.7503,3.4608 0.8705,0.4995 1.7552,0.9406 2.6019,1.3182 0.8217,0.3668 1.6078,0.6746 2.3091,0.9195 1.425,0.4972 2.5021,0.7356 3.5798,0.9743 h 27.9868 c 6.0075,0 10.8774,4.6825 10.8774,10.4587 0,4.5595 -3.0345,8.4376 -7.2675,9.8688 z"
     style="fill:url(#grad2)"
     id="path10" />
</svg>
