<?xml version="1.0" encoding="UTF-8" standalone="no"?>
<svg
   version="1.1"
   width="288"
   height="151.2"
   id="svg4"
   viewBox="0 0 288 151.2"
   sodipodi:docname="logo mask.cdr"
   xmlns:inkscape="http://www.inkscape.org/namespaces/inkscape"
   xmlns:sodipodi="http://sodipodi.sourceforge.net/DTD/sodipodi-0.dtd"
   xmlns="http://www.w3.org/2000/svg"
   xmlns:svg="http://www.w3.org/2000/svg">
  <defs
     id="defs8" />
  <sodipodi:namedview
     id="namedview6"
     pagecolor="#ffffff"
     bordercolor="#666666"
     borderopacity="1.0"
     inkscape:pageshadow="2"
     inkscape:pageopacity="0.0"
     inkscape:pagecheckerboard="0" />
  <path
     d="M 0,0 H 288 V 151.2 H 0 Z m 157.1839,41.4845 c -0.4362,2.2223 -1.9981,4.3463 -3.4925,5.8221 -0.1114,0.1105 -2.0792,1.4694 -0.5188,1.4694 h 11.0543 c 1.6566,0 -0.7257,-1.3762 -1.9925,-3.1005 -0.7843,-1.0675 -1.7198,-2.6118 -2.044,-4.2225 0.5113,0.2616 1.4913,1.6217 3.9951,2.1685 1.7609,0.3838 3.7222,0.097 5.1968,-0.5936 3.1306,-1.4652 4.8563,-4.4886 4.8563,-7.956 0,-3.8043 -2.7933,-5.5048 -4.3146,-7.1736 -0.5454,-0.5978 -0.9034,-0.8977 -1.4559,-1.398 -1.7881,-1.6198 -4.1,-3.9498 -5.8065,-5.7062 l -3.4724,-3.659 c -0.4417,-0.4835 -0.4856,-0.4742 -0.9261,9e-4 -1.946,2.0979 -3.6714,3.9078 -5.6894,5.9253 -0.487,0.487 -0.9417,0.9323 -1.461,1.3918 -0.555,0.4923 -0.8875,0.8645 -1.4417,1.4108 l -3.0291,2.7805 c -0.2616,0.244 -0.428,0.4895 -0.6959,0.7279 -0.8754,0.7767 -1.3655,1.3493 -1.9202,2.4662 -3.5989,7.2425 4.6823,14.8583 11.425,10.9108 0.8881,-0.5202 1.3595,-1.0874 1.7331,-1.2648 z m -96.9718,69.2498 -0.0034,0.003 -0.0745,0.0598 c -0.091,0.0735 -0.1812,0.1474 -0.2693,0.222 -3.1541,2.6714 -5.0151,6.7907 -4.6449,11.2422 0.1341,1.6146 0.5508,3.1374 1.1963,4.5241 2.2722,4.8767 7.3817,8.0623 13.0257,7.5932 19.1659,-1.5937 9.724,-27.9233 47.5719,-30.2783 -10.6563,-2.6924 -40.7177,-0.8512 -50.9046,3.3041 -2.2484,0.9172 -4.2508,2.0168 -5.8972,3.3301 z m 4.5848,-8.7676 c 5.9743,-2.4369 18.784,-4.0779 30.5067,-4.4753 0.3402,-0.7157 0.6664,-1.4074 0.9802,-2.0699 0.3405,-0.7217 0.6784,-1.4451 1.0146,-2.1702 l 0.0082,-2e-4 c 3.3939,-7.2536 6.3221,-13.8569 8.4257,-18.0678 2.1036,4.2109 5.0315,10.8142 8.4254,18.0678 l 0.008,2e-4 c 0.3362,0.7251 0.6741,1.4485 1.0171,2.1702 5.3524,11.3948 15.1557,31.3422 23.4465,36.1525 3.4254,1.9883 6.5412,2.5121 10.4621,2.6876 3.6411,0.1627 9.5613,0.1627 15.4814,0.1627 L 114.6478,34.6005 108.5443,22.3968 105.7311,16.776 102.92,22.3968 96.8165,34.6005 62.6346,102.9458 c 0.6908,-0.3472 1.4128,-0.6732 2.1623,-0.9791 z m 135.4192,7.4991 c -5.017,1.6962 -26.5909,0 -33.4607,0 0,0.8181 0,1.6364 0.3104,2.9469 3.5388,14.9272 14.4391,22.0116 29.5404,22.0116 16.4392,0 30.3199,-10.5302 34.7454,-24.9585 0.9598,-3.1289 1.4749,-6.4409 1.4749,-9.8688 0,-19.2348 -16.2165,-34.8273 -36.2203,-34.8273 h -48.8123 c 0.1037,1.2223 0.2078,2.4449 0.4615,3.8126 0.2537,1.3677 0.6579,2.8803 1.2741,4.5691 0.6166,1.6886 1.4457,3.5538 2.4092,5.1441 0.9632,1.5905 2.0616,2.906 3.4396,4.17 1.3779,1.264 3.0359,2.4764 4.7503,3.4608 0.8705,0.4995 1.7552,0.9406 2.6019,1.3181 0.8218,0.3668 1.6078,0.6747 2.3091,0.9196 1.425,0.4972 2.5021,0.7356 3.5799,0.9743 h 27.9867 c 6.0075,0 10.8774,4.6825 10.8774,10.4587 0,4.5595 -3.0345,8.4376 -7.2675,9.8688 z"
     id="path2"
     fill="#ffffff" />   
</svg>
