<?xml version="1.0" encoding="UTF-8" standalone="no"?>
<svg
   version="1.1"
   width="342"
   height="56.591999"
   id="svg20"
   viewBox="0 0 342 56.591999"
   sodipodi:docname="подпись центрированная.cdr"
   xmlns:inkscape="http://www.inkscape.org/namespaces/inkscape"
   xmlns:sodipodi="http://sodipodi.sourceforge.net/DTD/sodipodi-0.dtd"
   xmlns="http://www.w3.org/2000/svg"
   xmlns:svg="http://www.w3.org/2000/svg">
  <defs
     id="defs24" />
  <sodipodi:namedview
     id="namedview22"
     pagecolor="#ffffff"
     bordercolor="#666666"
     borderopacity="1.0"
     inkscape:pageshadow="2"
     inkscape:pageopacity="0.0"
     inkscape:pagecheckerboard="0" />
  <path
     d="m 79.7437,56.3005 c -0.19,0 -0.2832,-0.1131 -0.2832,-0.3429 L 79.4506,43.8848 c 0,-0.2364 0.1065,-0.3529 0.3197,-0.3529 h 0.6358 c 0.2066,0 0.3131,0.1233 0.3131,0.3695 l -0.02,10.245 6.7888,-10.4013 c 0.0567,-0.0967 0.1198,-0.1565 0.1864,-0.1833 0.0299,-0.0199 0.07,-0.0299 0.1165,-0.0299 h 0.6327 c 0.0899,0 0.1632,0.0332 0.2196,0.0965 0.0567,0.0667 0.0833,0.1466 0.0833,0.2464 v 12.0828 c 0,0.2298 -0.0999,0.3429 -0.3029,0.3429 H 87.771 c -0.1964,0 -0.2929,-0.1164 -0.2929,-0.3496 L 87.488,45.6694 80.7192,56.084 c -0.0999,0.1432 -0.2066,0.2165 -0.3231,0.2165 z m 16.1765,0.1264 c -0.1831,0 -0.3097,-0.0465 -0.3795,-0.1363 -0.0467,-0.06 -0.0699,-0.12 -0.0699,-0.1865 v -0.516 c 0,-0.07 0.0199,-0.1399 0.06,-0.2033 0.0631,-0.0932 0.1764,-0.1363 0.3294,-0.1363 0.7027,0 1.242,-0.2166 1.6149,-0.6494 0.3763,-0.4328 0.5627,-1.0454 0.5627,-1.8411 v -8.8732 c 0,-0.2364 0.1032,-0.3529 0.3129,-0.3529 h 7.8111 c 0.2031,0 0.3029,0.1233 0.3029,0.3695 V 55.941 c 0,0.2397 -0.1032,0.3595 -0.313,0.3595 h -0.6525 c -0.1964,0 -0.2931,-0.1198 -0.2931,-0.3595 V 44.7504 h -5.8997 v 8.254 c 0,1.012 -0.2831,1.8245 -0.849,2.4271 -0.6126,0.6627 -1.4583,0.9954 -2.5372,0.9954 z m 17.7883,0 c -0.1831,0 -0.3098,-0.0465 -0.3795,-0.1363 -0.0467,-0.06 -0.07,-0.12 -0.07,-0.1865 v -0.516 c 0,-0.07 0.02,-0.1399 0.06,-0.2033 0.0631,-0.0932 0.1765,-0.1363 0.3295,-0.1363 0.7027,0 1.242,-0.2166 1.6148,-0.6494 0.3764,-0.4328 0.5628,-1.0454 0.5628,-1.8411 v -8.8732 c 0,-0.2364 0.1032,-0.3529 0.3128,-0.3529 h 7.8112 c 0.203,0 0.3029,0.1233 0.3029,0.3695 V 55.941 c 0,0.2397 -0.1032,0.3595 -0.3131,0.3595 h -0.6524 c -0.1964,0 -0.2932,-0.1198 -0.2932,-0.3595 V 44.7504 h -5.8996 v 8.254 c 0,1.012 -0.2832,1.8245 -0.8491,2.4271 -0.6126,0.6627 -1.4583,0.9954 -2.5371,0.9954 z m 27.4638,0.1167 c -1.4683,0 -2.6935,-0.4928 -3.6758,-1.4816 -1.0023,-1.0022 -1.5015,-2.2409 -1.5015,-3.7158 v -0.8889 h -2.0111 v 5.4837 c 0,0.2397 -0.0999,0.3595 -0.3029,0.3595 h -0.6626 c -0.2,0 -0.3031,-0.1198 -0.3031,-0.3595 V 43.9014 c 0,-0.2329 0.1031,-0.3529 0.3031,-0.3595 h 0.6626 c 0.203,0 0.3029,0.12 0.3029,0.3595 v 5.3772 h 2.0111 v -0.7525 c 0,-1.4749 0.4992,-2.7201 1.5015,-3.7356 0.9688,-0.9956 2.1909,-1.4884 3.6658,-1.4818 0.7224,0 1.405,0.13 2.0443,0.3897 0.6425,0.2597 1.1953,0.6225 1.6647,1.0921 1.0056,1.0089 1.5117,2.254 1.5117,3.7356 v 2.8201 c 0,1.4815 -0.5061,2.7202 -1.5117,3.7158 -1.0023,0.9888 -2.2341,1.4816 -3.699,1.4816 z m 0,-1.1588 c 1.1319,0 2.0742,-0.3828 2.83,-1.1419 0.7592,-0.7758 1.142,-1.7346 1.142,-2.8768 v -2.8699 c 0,-1.1453 -0.3828,-2.1043 -1.142,-2.8768 -0.7492,-0.7622 -1.6914,-1.1453 -2.83,-1.1519 -1.1254,0 -2.061,0.3861 -2.8069,1.1519 -0.7558,0.7658 -1.1319,1.7282 -1.1319,2.8768 v 2.85 c 0,1.1621 0.3761,2.1242 1.1319,2.8867 0.7526,0.7658 1.6882,1.1519 2.8069,1.1519 z m 15.0181,0.9657 c -0.7226,0 -1.3651,-0.1698 -1.9245,-0.5094 -0.5593,-0.323 -0.9821,-0.7892 -1.2653,-1.3952 l -0.0199,-0.0866 -0.0299,-0.0965 c -0.0401,-0.0799 -0.05,-0.1632 -0.0332,-0.253 0.0166,-0.0932 0.0631,-0.1532 0.1397,-0.1865 l 0.3529,-0.2264 c 0.2265,-0.0565 0.3764,-0.01 0.4461,0.1366 0.007,0.0066 0.0102,0.04 0.0102,0.0932 0,0.0566 0.003,0.0865 0.01,0.0932 0.2163,0.4428 0.556,0.7824 1.0255,1.0155 0.3961,0.1997 0.7858,0.3031 1.1685,0.3031 h 0.7227 c 0.6557,0 1.2384,-0.2165 1.7479,-0.646 0.5459,-0.4528 0.8224,-1.0322 0.8291,-1.7346 v -0.5661 c 0,-0.6558 -0.2199,-1.1953 -0.656,-1.6116 -0.4162,-0.4027 -0.9356,-0.6026 -1.5582,-0.6026 h -1.5916 c -0.1098,0.0066 -0.1997,-0.0199 -0.2696,-0.0832 -0.0667,-0.0631 -0.0999,-0.1464 -0.0999,-0.2597 V 49.395 c 0,-0.2096 0.13,-0.3128 0.3897,-0.3128 h 1.5416 c 0.5393,0 0.992,-0.1897 1.3549,-0.5661 0.3697,-0.3894 0.5528,-0.8756 0.5462,-1.4517 v -0.3728 c 0,-0.5794 -0.2299,-1.0722 -0.6926,-1.4815 -0.4361,-0.3963 -0.9389,-0.596 -1.5116,-0.596 h -0.596 c -0.4162,0 -0.799,0.1065 -1.1486,0.3228 -0.3797,0.2264 -0.6527,0.5428 -0.8225,0.9455 -0.003,0.0069 -0.007,0.0467 -0.007,0.1167 -0.0133,0.0733 -0.0233,0.1098 -0.0299,0.1165 -0.0268,0.0799 -0.0833,0.1332 -0.1665,0.1631 -0.0832,0.0299 -0.1665,0.0233 -0.2431,-0.0166 l -0.4096,-0.263 c -0.1499,-0.0899 -0.1797,-0.2331 -0.0899,-0.4295 0.0133,-0.0133 0.02,-0.05 0.02,-0.1098 0,-0.0633 0.003,-0.0968 0.01,-0.1034 0.2666,-0.6558 0.7492,-1.1585 1.4451,-1.5015 0.5329,-0.2497 1.1488,-0.373 1.8513,-0.373 h 0.2464 c 0.9289,0 1.718,0.2831 2.3671,0.849 0.6925,0.606 1.0321,1.3784 1.0255,2.324 v 0.3697 c 0,1.0786 -0.4594,1.9177 -1.3751,2.517 0.5462,0.323 0.9522,0.6925 1.2188,1.1021 0.3261,0.4928 0.4926,1.0587 0.4992,1.6948 v 0.596 c 0,1.0221 -0.3894,1.8543 -1.1618,2.497 -0.716,0.6126 -1.585,0.919 -2.6038,0.919 z m 12.168,-0.05 c -0.1899,0 -0.2831,-0.1131 -0.2831,-0.3429 l -0.01,-12.0728 c 0,-0.2364 0.1065,-0.3529 0.3197,-0.3529 h 0.6358 c 0.2066,0 0.3131,0.1233 0.3131,0.3695 l -0.0199,10.245 6.7887,-10.4013 c 0.0567,-0.0967 0.1198,-0.1565 0.1865,-0.1833 0.0298,-0.0199 0.0699,-0.0299 0.1164,-0.0299 h 0.6328 c 0.0898,0 0.1631,0.0332 0.2196,0.0965 0.0566,0.0667 0.0832,0.1466 0.0832,0.2464 v 12.0828 c 0,0.2298 -0.0998,0.3429 -0.3028,0.3429 h -0.6527 c -0.1964,0 -0.2929,-0.1164 -0.2929,-0.3496 l 0.01,-10.2815 -6.7688,10.4146 c -0.0999,0.1432 -0.2066,0.2165 -0.323,0.2165 z m 25.5257,-1.2385 c -0.9989,0.9888 -2.234,1.4816 -3.7056,1.4816 -1.475,0 -2.7004,-0.4928 -3.6825,-1.4816 -1.0022,-1.0022 -1.5017,-2.2409 -1.5017,-3.7158 v -2.8201 c 0,-1.4749 0.4995,-2.7201 1.5017,-3.7356 0.4727,-0.4762 1.0255,-0.8391 1.658,-1.0988 0.6295,-0.2563 1.3087,-0.383 2.0278,-0.383 0.7224,0 1.4016,0.13 2.041,0.3897 0.6358,0.2597 1.1887,0.6225 1.658,1.0921 0.9989,1.002 1.5017,2.2474 1.5017,3.7356 v 2.8201 c 0,1.4884 -0.4994,2.7269 -1.4984,3.7158 z m -3.6924,0.3228 c 1.132,0 2.071,-0.3828 2.8201,-1.1419 0.7592,-0.7758 1.142,-1.7346 1.142,-2.8768 v -2.8699 c 0,-1.1453 -0.3828,-2.1043 -1.142,-2.8768 -0.7491,-0.7622 -1.6881,-1.1419 -2.8201,-1.1453 -1.1319,-0.0033 -2.0709,0.3795 -2.8167,1.1453 -0.7559,0.7658 -1.1353,1.7282 -1.142,2.8768 v 2.85 c 0,1.1621 0.3795,2.1242 1.142,2.8867 0.7525,0.7658 1.6914,1.1519 2.8167,1.1519 z m 13.2402,0.9157 c -0.1999,0 -0.3031,-0.1164 -0.3031,-0.3496 V 43.9014 c 0,-0.1098 0.0299,-0.1997 0.0833,-0.2663 0.0567,-0.07 0.1299,-0.1032 0.2198,-0.1032 h 0.6624 c 0.2099,0 0.3131,0.1233 0.3131,0.3695 v 5.4038 h 6.8587 v -5.4038 c 0,-0.2395 0.0999,-0.3629 0.3031,-0.3695 h 0.6525 c 0.2065,0 0.313,0.1233 0.313,0.3695 V 55.941 c 0,0.2397 -0.1065,0.3595 -0.313,0.3595 h -0.6525 c -0.2032,0 -0.3031,-0.1198 -0.3031,-0.3595 v -5.4737 h -6.8587 v 5.4737 c 0,0.2397 -0.0999,0.3595 -0.3031,0.3595 z m 17.9747,0 c -0.19,0 -0.2832,-0.1131 -0.2832,-0.3429 l -0.01,-12.0728 c 0,-0.2364 0.1065,-0.3529 0.3197,-0.3529 h 0.6358 c 0.2066,0 0.3131,0.1233 0.3131,0.3695 l -0.02,10.245 6.7888,-10.4013 c 0.0567,-0.0967 0.1198,-0.1565 0.1864,-0.1833 0.0299,-0.0199 0.07,-0.0299 0.1165,-0.0299 h 0.6327 c 0.0899,0 0.1632,0.0332 0.2196,0.0965 0.0567,0.0667 0.0833,0.1466 0.0833,0.2464 v 12.0828 c 0,0.2298 -0.0999,0.3429 -0.3029,0.3429 h -0.6526 c -0.1964,0 -0.2929,-0.1164 -0.2929,-0.3496 l 0.01,-10.2815 -6.7688,10.4146 c -0.0999,0.1432 -0.2066,0.2165 -0.3231,0.2165 z m 21.7968,0.2431 c -1.445,0 -2.6569,-0.4862 -3.6393,-1.4616 -1.0155,-0.9956 -1.5216,-2.2642 -1.5216,-3.8058 v -2.71 c 0,-1.5283 0.5061,-2.7903 1.5216,-3.7856 1.0023,-0.9824 2.2208,-1.4719 3.6559,-1.4719 0.789,0 1.5482,0.2033 2.2839,0.6129 0.696,0.3827 1.2553,0.9187 1.6781,1.6013 0.0833,0.1366 0.1099,0.2398 0.0766,0.3097 -0.0298,0.0733 -0.06,0.1264 -0.0865,0.1565 l -0.536,0.273 c -0.13,0.1065 -0.2597,0.0534 -0.3897,-0.1565 -0.3263,-0.4995 -0.7624,-0.9022 -1.3084,-1.2086 -0.526,-0.2863 -1.0888,-0.4295 -1.6881,-0.4295 -1.132,0 -2.0709,0.3861 -2.8168,1.1519 -0.7625,0.7725 -1.1453,1.7681 -1.1519,2.9833 v 2.6436 c 0,1.2252 0.3828,2.2208 1.1519,2.9966 0.7392,0.7591 1.6782,1.1419 2.8168,1.1419 0.5927,0 1.1521,-0.1463 1.6848,-0.4361 0.5293,-0.2896 0.9655,-0.6892 1.3117,-1.2053 0.1433,-0.1864 0.2797,-0.2331 0.4096,-0.1364 l 0.5161,0.2564 c 0.0398,0.0366 0.0733,0.0899 0.1065,0.153 0.0265,0.0799 -0.007,0.1831 -0.0966,0.3131 -0.3896,0.6559 -0.9488,1.1919 -1.6781,1.6015 -0.7423,0.4094 -1.5081,0.6126 -2.3005,0.6126 z m 14.5951,-0.2431 c -0.2132,0 -0.3197,-0.1432 -0.3197,-0.4295 V 44.704 h -3.4728 c -0.2362,0 -0.3562,-0.1032 -0.3628,-0.3031 v -0.546 c 0,-0.1065 0.0367,-0.1831 0.1031,-0.2398 0.07,-0.0566 0.1532,-0.0832 0.2597,-0.0832 h 8.2007 c 0.2298,0 0.3429,0.0965 0.3429,0.2929 v 0.5561 c 0,0.213 -0.1098,0.3231 -0.333,0.3231 h -3.4725 v 11.167 c 0,0.2863 -0.1067,0.4295 -0.3197,0.4295 z"
     style="fill:#6b76d6;fill-rule:evenodd"
     id="path2" />
</svg>
