<?xml version="1.0" encoding="UTF-8" standalone="no"?>
<svg
   version="1.1"
   width="342"
   height="56.591999"
   id="svg20"
   viewBox="0 0 342 56.591999"
   sodipodi:docname="подпись центрированная.cdr"
   xmlns:inkscape="http://www.inkscape.org/namespaces/inkscape"
   xmlns:sodipodi="http://sodipodi.sourceforge.net/DTD/sodipodi-0.dtd"
   xmlns="http://www.w3.org/2000/svg"
   xmlns:svg="http://www.w3.org/2000/svg">
  <defs
     id="defs24" />
  <sodipodi:namedview
     id="namedview22"
     pagecolor="#ffffff"
     bordercolor="#666666"
     borderopacity="1.0"
     inkscape:pageshadow="2"
     inkscape:pageopacity="0.0"
     inkscape:pagecheckerboard="0" />
  <path
     d="m 0.5136,26.6857 c -0.2026,0 -0.345,-0.0602 -0.4271,-0.1862 C 0.0099,26.3791 0.0044,26.2095 0.081,25.9961 L 8.5001,2.742 C 8.6042,2.3971 8.8178,2.2275 9.1406,2.2275 h 2.2772 c 0.3231,0 0.542,0.1696 0.6569,0.5145 l 8.4191,23.2541 c 0.0658,0.2023 0.0549,0.3666 -0.0327,0.4981 -0.0822,0.1257 -0.219,0.1915 -0.3996,0.1915 h -2.2443 c -0.323,0 -0.5311,-0.1643 -0.6241,-0.4981 L 15.4742,21.2828 H 5.0845 l -1.7026,4.9048 c -0.104,0.3338 -0.3174,0.4981 -0.6404,0.4981 z m 5.611,-8.3864 h 8.3095 L 10.6461,7.4223 10.2792,5.5502 9.8962,7.4223 Z"
     style="fill:#000000;fill-rule:evenodd"
     id="path4" />
  <path
     d="m 22.2896,26.9102 c -0.3941,0 -0.6569,-0.0766 -0.7829,-0.2245 -0.0985,-0.0766 -0.1477,-0.1862 -0.1477,-0.3394 v -1.5985 c 0,-0.1532 0.0383,-0.2791 0.1149,-0.3885 0.0986,-0.1698 0.2956,-0.2575 0.5912,-0.2575 1.0182,0 1.7902,-0.3447 2.3266,-1.0399 0.5034,-0.6515 0.7554,-1.5765 0.7554,-2.7754 V 6.3494 c 0,-0.416 0.1915,-0.6294 0.5747,-0.6405 h 13.6469 c 0.3668,0 0.5475,0.2081 0.5475,0.6241 v 19.7286 c 0,0.416 -0.1807,0.6241 -0.5475,0.6241 h -2.0691 c -0.3505,0 -0.5312,-0.2081 -0.542,-0.6241 V 8.7088 L 28.3221,8.6924 v 12.3659 c 0,1.7408 -0.5365,3.1423 -1.604,4.1987 -1.0893,1.1001 -2.5673,1.6532 -4.4285,1.6532 z"
     style="fill:#000000;fill-rule:evenodd"
     id="path6" />
  <path
     d="m 53.4697,27.1347 c -1.2317,0 -2.3922,-0.2137 -3.4815,-0.6352 C 48.8988,26.078 47.9463,25.476 47.1363,24.6987 45.3899,23.0289 44.5196,20.927 44.5196,18.3925 v -4.2972 c 0,-2.5345 0.8595,-4.6419 2.5673,-6.3336 1.6806,-1.6476 3.7936,-2.4632 6.35,-2.4524 1.0509,0 2.0527,0.1971 3.0107,0.5914 0.9524,0.394 1.801,0.9798 2.54,1.7461 1.6477,1.7025 2.4688,3.9634 2.4688,6.7879 v 1.6806 c 0,0.6841 -0.3558,0.9963 -1.0729,0.9305 h -0.2902 c -0.0219,0.0111 -0.0875,0.0219 -0.1915,0.0328 H 47.6014 v 1.2809 c 0,1.7683 0.5694,3.2025 1.7134,4.3192 1.0894,1.0673 2.447,1.6038 4.0619,1.6148 1.8338,0 3.2899,-0.7609 4.3572,-2.2881 0.2245,-0.3121 0.4435,-0.3887 0.6571,-0.23 l 1.7353,0.8869 c 0.2134,0.1915 0.2189,0.4543 0.0164,0.7826 -0.6844,1.0676 -1.604,1.949 -2.759,2.6331 -1.2317,0.7062 -2.5345,1.0567 -3.914,1.0567 z M 47.6014,14.6756 H 58.555 v -0.5639 c 0,-1.5929 -0.416,-2.9505 -1.2535,-4.0728 -0.9305,-1.2643 -2.2389,-1.894 -3.9248,-1.894 -1.7025,0 -3.0929,0.5748 -4.1713,1.7189 -1.0729,1.1331 -1.604,2.5237 -1.604,4.1657 z"
     style="fill:#000000;fill-rule:evenodd"
     id="path8" />
  <path
     d="m 66.8599,26.6857 c -0.416,0 -0.6241,-0.2409 -0.6241,-0.7226 V 6.4479 c 0,-0.4926 0.2135,-0.739 0.6405,-0.739 h 1.7791 c 0.4818,0 0.7227,0.2573 0.7227,0.772 v 9.7657 c 0.4598,-0.1915 0.903,-0.5037 1.3301,-0.9305 0.3558,-0.3558 0.6186,-0.6844 0.8048,-0.9963 l 3.8318,-6.027 c 0.7171,-1.155 1.4342,-1.9051 2.1458,-2.2498 0.5802,-0.2958 1.4561,-0.449 2.633,-0.449 0.2683,0 0.4598,0.0602 0.5747,0.1807 0.1205,0.1149 0.1807,0.2628 0.1807,0.4324 v 1.6478 c 0,0.3996 -0.2134,0.6022 -0.6458,0.613 -0.542,0 -0.991,0.1313 -1.3468,0.3996 -0.2683,0.1916 -0.5528,0.542 -0.8649,1.0402 l -3.2736,5.3098 7.4942,10.3789 c 0.1477,0.2462 0.1915,0.4871 0.126,0.7224 -0.0988,0.2465 -0.2958,0.3669 -0.5914,0.3669 h -2.1019 c -0.2902,0 -0.5583,-0.1751 -0.8047,-0.5309 l -6.3336,-8.7202 c -0.5856,0.6294 -0.9908,1.029 -1.2042,1.1988 -0.6296,0.5254 -1.281,0.8758 -1.9542,1.0618 v 6.2187 c 0,0.5145 -0.2301,0.7718 -0.6899,0.7718 z"
     style="fill:#000000;fill-rule:evenodd"
     id="path10" />
  <path
     d="m 93.5296,27.1347 c -1.1878,0 -2.31,-0.2137 -3.3776,-0.6405 -1.0618,-0.4271 -1.987,-1.0401 -2.7807,-1.8285 -1.6861,-1.6587 -2.5345,-3.7553 -2.5345,-6.2898 v -4.297 c 0,-1.2371 0.2243,-2.3977 0.6677,-3.4816 0.4435,-1.0784 1.0676,-2.02 1.8668,-2.819 1.6587,-1.6587 3.7168,-2.4798 6.1747,-2.469 1.3467,0 2.6441,0.3613 3.8812,1.0895 1.1878,0.6952 2.1075,1.6148 2.7588,2.7588 0.2136,0.3613 0.2026,0.6241 -0.0328,0.7828 l -1.6531,0.8212 c -0.2354,0.1587 -0.4543,0.071 -0.6569,-0.2573 C 97.3723,9.7872 96.7537,9.2178 95.982,8.7854 95.2157,8.3583 94.4054,8.1449 93.5624,8.1449 c -1.6149,0 -2.9559,0.5528 -4.0343,1.6642 -1.0731,1.1057 -1.6095,2.5454 -1.6095,4.319 v 4.1712 c 0,1.7847 0.5364,3.2408 1.6204,4.363 1.0456,1.0784 2.3866,1.6202 4.0234,1.6312 0.843,0 1.6478,-0.2081 2.4032,-0.6241 0.7609,-0.416 1.3903,-1.0018 1.894,-1.7627 0.1915,-0.3119 0.4105,-0.3777 0.6569,-0.2079 l 1.6367,0.8156 c 0.2134,0.1915 0.2245,0.449 0.0328,0.7718 -0.6294,1.1442 -1.5491,2.0694 -2.7588,2.7754 -1.2207,0.7171 -2.5181,1.0731 -3.8976,1.0731 z"
     style="fill:#000000;fill-rule:evenodd"
     id="path12" />
  <path
     d="m 112.6781,27.1347 c -1.2316,0 -2.3922,-0.2137 -3.4814,-0.6352 -1.0895,-0.4215 -2.0419,-1.0235 -2.852,-1.8008 -1.7463,-1.6698 -2.6166,-3.7717 -2.6166,-6.3062 v -4.2972 c 0,-2.5345 0.8594,-4.6419 2.5672,-6.3336 1.6806,-1.6476 3.7936,-2.4632 6.35,-2.4524 1.051,0 2.0528,0.1971 3.0107,0.5914 0.9525,0.394 1.8011,0.9798 2.5401,1.7461 1.6476,1.7025 2.4687,3.9634 2.4687,6.7879 v 1.6806 c 0,0.6841 -0.3557,0.9963 -1.0728,0.9305 h -0.2903 c -0.0219,0.0111 -0.0874,0.0219 -0.1915,0.0328 h -12.3004 v 1.2809 c 0,1.7683 0.5695,3.2025 1.7134,4.3192 1.0895,1.0673 2.4471,1.6038 4.0619,1.6148 1.8338,0 3.2899,-0.7609 4.3572,-2.2881 0.2245,-0.3121 0.4435,-0.3887 0.6571,-0.23 l 1.7353,0.8869 c 0.2134,0.1915 0.219,0.4543 0.0164,0.7826 -0.6843,1.0676 -1.604,1.949 -2.759,2.6331 -1.2316,0.7062 -2.5345,1.0567 -3.914,1.0567 z m -5.8683,-12.4591 h 10.9537 v -0.5639 c 0,-1.5929 -0.416,-2.9505 -1.2535,-4.0728 -0.9306,-1.2643 -2.239,-1.894 -3.9249,-1.894 -1.7025,0 -3.0929,0.5748 -4.1713,1.7189 -1.0728,1.1331 -1.604,2.5237 -1.604,4.1657 z"
     style="fill:#000000;fill-rule:evenodd"
     id="path14" />
  <path
     d="m 133.3974,4.0066 c -1.0072,0 -1.8502,-0.3285 -2.5345,-0.9909 -0.6733,-0.6513 -1.0127,-1.4397 -1.0127,-2.3594 0,-0.3941 0.1643,-0.5966 0.4818,-0.6075 h 1.0126 c 0.2792,0 0.4107,0.1643 0.3996,0.4981 0,0.4052 0.1424,0.7499 0.4326,1.0401 0.312,0.3339 0.728,0.4982 1.2535,0.4982 0.4818,0 0.8867,-0.1751 1.2153,-0.5311 0.3011,-0.3284 0.4434,-0.6733 0.4379,-1.0235 0,-0.3231 0.1313,-0.4818 0.3996,-0.4818 h 0.9907 c 0.1643,0 0.2847,0.0602 0.3724,0.1751 0.0819,0.1149 0.1258,0.252 0.1258,0.3996 0,0.9197 -0.3394,1.7134 -1.0235,2.3813 -0.6844,0.6678 -1.5383,1.0018 -2.5511,1.0018 z m -7.472,22.6791 c -0.1862,0 -0.3067,-0.0494 -0.3722,-0.1424 C 125.493,26.4448 125.46,26.2916 125.46,26.078 L 125.4436,6.3167 c 0,-0.1807 0.0494,-0.3286 0.1532,-0.438 0.0985,-0.1149 0.2356,-0.1698 0.4052,-0.1698 h 2.0199 c 0.1752,0 0.3064,0.0603 0.4052,0.1862 0.093,0.1205 0.1421,0.2681 0.1421,0.4379 l -0.0491,15.2345 9.7822,-15.4753 c 0.1313,-0.2026 0.2737,-0.3175 0.4324,-0.3503 0.0658,-0.0219 0.1041,-0.033 0.1149,-0.033 h 1.9872 c 0.1641,0 0.2901,0.0549 0.3941,0.1698 0.1041,0.1094 0.1532,0.2518 0.1532,0.4216 V 26.078 c 0,0.4051 -0.1806,0.6077 -0.5473,0.6077 h -2.0363 c -0.3505,0 -0.5312,-0.2026 -0.5312,-0.6077 l 0.0494,-15.2837 -9.7001,15.4424 c -0.1807,0.3011 -0.3888,0.449 -0.6241,0.449 z"
     style="fill:#000000;fill-rule:evenodd"
     id="path16" />
  <path
     d="m 159.3857,26.6859 c -0.3668,0 -0.5475,-0.1916 -0.5475,-0.5748 V 2.8682 c 0,-0.3832 0.1807,-0.575 0.5475,-0.575 h 12.9737 c 0.3613,0 0.5473,0.1862 0.5473,0.5584 v 1.9106 c 0,0.3666 -0.186,0.5473 -0.5473,0.5473 H 161.953 v 5.9942 h 5.8683 c 1.8501,0 3.4322,0.6075 4.746,1.8119 1.3686,1.2754 2.0527,2.83 2.0527,4.6694 v 1.8612 c 0,2.1075 -0.6677,3.8155 -2.0034,5.1293 -1.3029,1.2754 -2.9396,1.9104 -4.9102,1.9104 z m 2.5673,-2.6769 h 5.2278 c 1.1933,0 2.1951,-0.3996 2.9998,-1.1878 0.8431,-0.8211 1.2644,-1.8776 1.2644,-3.1586 v -1.7025 c 0,-1.1659 -0.4543,-2.1238 -1.3629,-2.8848 -0.832,-0.6951 -1.8174,-1.0456 -2.9505,-1.0456 h -5.1786 z m 25.2083,3.1258 c -1.2316,0 -2.3922,-0.2136 -3.4814,-0.6351 -1.0895,-0.4216 -2.042,-1.0235 -2.852,-1.8008 -1.7464,-1.6698 -2.6167,-3.7717 -2.6167,-6.3062 v -4.2972 c 0,-2.5345 0.8595,-4.642 2.5673,-6.3336 1.6806,-1.6477 3.7936,-2.4633 6.35,-2.4524 1.0509,0 2.0527,0.197 3.0107,0.5913 0.9524,0.3941 1.801,0.9799 2.5401,1.7461 1.6476,1.7026 2.4687,3.9634 2.4687,6.788 v 1.6805 c 0,0.6842 -0.3558,0.9963 -1.0729,0.9306 h -0.2902 c -0.0219,0.011 -0.0875,0.0219 -0.1915,0.0327 H 181.293 v 1.281 c 0,1.7683 0.5694,3.2025 1.7134,4.3192 1.0895,1.0673 2.447,1.6037 4.0619,1.6148 1.8338,0 3.2899,-0.7609 4.3572,-2.2881 0.2245,-0.3122 0.4435,-0.3888 0.6571,-0.23 l 1.7353,0.8869 c 0.2134,0.1915 0.2189,0.4543 0.0164,0.7826 -0.6844,1.0676 -1.604,1.9489 -2.759,2.633 -1.2316,0.7063 -2.5345,1.0567 -3.914,1.0567 z M 181.293,14.6757 h 10.9537 v -0.5639 c 0,-1.5929 -0.416,-2.9505 -1.2536,-4.0727 -0.9305,-1.2644 -2.2389,-1.894 -3.9248,-1.894 -1.7025,0 -3.0929,0.5747 -4.1713,1.7189 -1.0729,1.1331 -1.604,2.5236 -1.604,4.1657 z m 16.8985,12.2346 c -0.3941,0 -0.6569,-0.0766 -0.7828,-0.2244 -0.0986,-0.0767 -0.1477,-0.1862 -0.1477,-0.3394 V 24.748 c 0,-0.1532 0.0383,-0.2792 0.1149,-0.3885 0.0985,-0.1699 0.2955,-0.2575 0.5911,-0.2575 1.0182,0 1.7902,-0.3447 2.3266,-1.0399 0.5035,-0.6516 0.7554,-1.5765 0.7554,-2.7754 V 6.3496 c 0,-0.416 0.1915,-0.6294 0.5748,-0.6405 h 13.6468 c 0.3669,0 0.5475,0.2081 0.5475,0.6241 v 19.7285 c 0,0.416 -0.1806,0.6242 -0.5475,0.6242 h -2.0691 c -0.3505,0 -0.5311,-0.2082 -0.542,-0.6242 V 8.709 L 204.224,8.6926 v 12.3659 c 0,1.7408 -0.5364,3.1422 -1.604,4.1987 -1.0892,1.1001 -2.5673,1.6531 -4.4285,1.6531 z m 23.9819,-0.2244 c -0.1862,0 -0.3066,-0.0494 -0.3721,-0.1424 -0.0602,-0.0985 -0.0932,-0.2517 -0.0932,-0.4654 L 221.6917,6.3168 c 0,-0.1806 0.0494,-0.3285 0.1532,-0.4379 0.0985,-0.1149 0.2356,-0.1698 0.4051,-0.1698 h 2.02 c 0.1752,0 0.3064,0.0602 0.4052,0.1862 0.093,0.1204 0.1421,0.2681 0.1421,0.4379 l -0.0491,15.2345 9.7822,-15.4754 c 0.1313,-0.2025 0.2737,-0.3175 0.4324,-0.3502 0.0657,-0.0219 0.104,-0.033 0.1149,-0.033 h 1.9872 c 0.1641,0 0.29,0.0549 0.3941,0.1698 0.1041,0.1094 0.1532,0.2517 0.1532,0.4215 v 19.7777 c 0,0.4052 -0.1807,0.6078 -0.5473,0.6078 h -2.0364 c -0.3504,0 -0.5311,-0.2026 -0.5311,-0.6078 l 0.0494,-15.2836 -9.7001,15.4424 c -0.1807,0.3011 -0.3888,0.449 -0.6241,0.449 z m 21.7486,0 c -0.356,0 -0.5367,-0.2026 -0.5475,-0.6078 V 6.3332 c 0,-0.1915 0.0547,-0.3449 0.1587,-0.4543 0.1096,-0.1149 0.2353,-0.1698 0.3888,-0.1698 h 2.0855 c 0.3613,0 0.542,0.2081 0.542,0.6241 v 8.3589 h 9.815 V 6.3332 c 0,-0.4051 0.1806,-0.613 0.5475,-0.6241 h 2.0691 c 0.3613,0 0.542,0.2081 0.542,0.6241 v 19.7285 c 0,0.416 -0.1807,0.6242 -0.542,0.6242 h -2.0691 c -0.3669,0 -0.5475,-0.2082 -0.5475,-0.6242 v -8.5504 h -9.815 v 8.5504 c 0,0.416 -0.1752,0.6242 -0.5256,0.6242 z m 28.9907,0.4489 c -1.1878,0 -2.31,-0.2136 -3.3776,-0.6405 -1.0618,-0.427 -1.987,-1.0401 -2.7807,-1.8284 -1.6861,-1.6587 -2.5345,-3.7553 -2.5345,-6.2898 v -4.297 c 0,-1.2372 0.2243,-2.3977 0.6678,-3.4816 0.4434,-1.0785 1.0675,-2.02 1.8667,-2.819 1.6587,-1.6587 3.7168,-2.4799 6.1747,-2.469 1.3467,0 2.6441,0.3613 3.8812,1.0895 1.1878,0.6951 2.1075,1.6148 2.7588,2.7587 0.2137,0.3613 0.2026,0.6241 -0.0328,0.7829 l -1.6531,0.8211 c -0.2353,0.1588 -0.4543,0.0711 -0.6569,-0.2572 -0.4709,-0.7171 -1.0894,-1.2865 -1.8612,-1.7189 -0.7663,-0.4271 -1.5766,-0.6405 -2.4196,-0.6405 -1.6149,0 -2.9558,0.5528 -4.0342,1.6642 -1.0731,1.1056 -1.6096,2.5453 -1.6096,4.3189 v 4.1713 c 0,1.7846 0.5365,3.2407 1.6204,4.363 1.0456,1.0784 2.3866,1.6201 4.0234,1.6312 0.843,0 1.6478,-0.2081 2.4032,-0.6241 0.7609,-0.416 1.3903,-1.0018 1.894,-1.7627 0.1915,-0.312 0.4105,-0.3777 0.6569,-0.2079 l 1.6367,0.8156 c 0.2135,0.1915 0.2245,0.449 0.0328,0.7718 -0.6294,1.1441 -1.5491,2.0693 -2.7588,2.7753 -1.2207,0.7171 -2.5181,1.0731 -3.8976,1.0731 z m 12.0923,-0.4489 c -0.416,0 -0.6241,-0.2409 -0.6241,-0.7227 V 6.4481 c 0,-0.4926 0.2134,-0.739 0.6405,-0.739 h 1.7791 c 0.4817,0 0.7226,0.2573 0.7226,0.772 v 9.7656 c 0.4598,-0.1915 0.9031,-0.5036 1.3301,-0.9305 0.3558,-0.3558 0.6186,-0.6843 0.8048,-0.9962 l 3.8319,-6.027 c 0.717,-1.155 1.4341,-1.9051 2.1457,-2.2498 0.5803,-0.2958 1.4561,-0.449 2.633,-0.449 0.2683,0 0.4599,0.0602 0.5748,0.1806 0.1204,0.115 0.1806,0.2628 0.1806,0.4324 v 1.6479 c 0,0.3996 -0.2134,0.6021 -0.6458,0.613 -0.542,0 -0.9909,0.1313 -1.3467,0.3996 -0.2684,0.1915 -0.5528,0.542 -0.865,1.0401 l -3.2735,5.3099 7.4941,10.3789 c 0.1477,0.2462 0.1915,0.4871 0.126,0.7224 -0.0987,0.2464 -0.2958,0.3669 -0.5913,0.3669 h -2.1019 c -0.2903,0 -0.5584,-0.1752 -0.8048,-0.5309 l -6.3336,-8.7203 c -0.5856,0.6294 -0.9908,1.0291 -1.2042,1.1989 -0.6296,0.5253 -1.281,0.8758 -1.9542,1.0618 v 6.2187 c 0,0.5145 -0.23,0.7718 -0.6899,0.7718 z m 19.7285,0 c -0.1862,0 -0.3066,-0.0494 -0.3721,-0.1424 -0.0603,-0.0985 -0.0933,-0.2517 -0.0933,-0.4654 L 304.2518,6.3168 c 0,-0.1806 0.0493,-0.3285 0.1532,-0.4379 0.0985,-0.1149 0.2355,-0.1698 0.4051,-0.1698 h 2.02 c 0.1751,0 0.3064,0.0602 0.4052,0.1862 0.0929,0.1204 0.1421,0.2681 0.1421,0.4379 l -0.0492,15.2345 9.7823,-15.4754 c 0.1313,-0.2025 0.2736,-0.3175 0.4324,-0.3502 0.0657,-0.0219 0.104,-0.033 0.1149,-0.033 h 1.9872 c 0.164,0 0.29,0.0549 0.3941,0.1698 0.104,0.1094 0.1532,0.2517 0.1532,0.4215 v 19.7777 c 0,0.4052 -0.1807,0.6078 -0.5473,0.6078 h -2.0364 c -0.3504,0 -0.5311,-0.2026 -0.5311,-0.6078 l 0.0494,-15.2836 -9.7001,15.4424 c -0.1807,0.3011 -0.3888,0.449 -0.6242,0.449 z M 333.9868,4.0068 c -1.0071,0 -1.8502,-0.3285 -2.5345,-0.9909 -0.6732,-0.6514 -1.0126,-1.4398 -1.0126,-2.3594 0,-0.3941 0.1642,-0.5967 0.4817,-0.6075 h 1.0127 c 0.2791,0 0.4106,0.1642 0.3996,0.4981 0,0.4051 0.1423,0.7499 0.4326,1.0401 0.3119,0.3339 0.7279,0.4981 1.2535,0.4981 0.4818,0 0.8867,-0.1751 1.2152,-0.5311 0.3011,-0.3283 0.4435,-0.6732 0.4379,-1.0235 0,-0.323 0.1313,-0.4817 0.3997,-0.4817 h 0.9907 c 0.1643,0 0.2847,0.0602 0.3724,0.1751 0.0819,0.1149 0.1257,0.2519 0.1257,0.3996 0,0.9197 -0.3394,1.7134 -1.0235,2.3813 -0.6843,0.6677 -1.5382,1.0018 -2.5511,1.0018 z m -7.472,22.6791 c -0.1862,0 -0.3066,-0.0494 -0.3722,-0.1424 -0.0602,-0.0985 -0.0932,-0.2517 -0.0932,-0.4654 L 326.0331,6.3168 c 0,-0.1806 0.0493,-0.3285 0.1532,-0.4379 0.0985,-0.1149 0.2355,-0.1698 0.4051,-0.1698 h 2.02 c 0.1751,0 0.3064,0.0602 0.4051,0.1862 0.093,0.1204 0.1422,0.2681 0.1422,0.4379 l -0.0492,15.2345 9.7823,-15.4754 c 0.1313,-0.2025 0.2736,-0.3175 0.4324,-0.3502 0.0657,-0.0219 0.104,-0.033 0.1149,-0.033 h 1.9872 c 0.164,0 0.29,0.0549 0.3941,0.1698 0.104,0.1094 0.1532,0.2517 0.1532,0.4215 v 19.7777 c 0,0.4052 -0.1807,0.6078 -0.5473,0.6078 h -2.0364 c -0.3505,0 -0.5311,-0.2026 -0.5311,-0.6078 l 0.0494,-15.2836 -9.7001,15.4424 c -0.1807,0.3011 -0.3888,0.449 -0.6242,0.449 z"
     style="fill:#000000;fill-rule:evenodd"
     id="path18" />
</svg>
